<mxfile host="app.diagrams.net" modified="2023-10-05T10:16:18.219Z" agent="Mozilla/5.0 (Windows NT 10.0; Win64; x64) AppleWebKit/537.36 (KHTML, like Gecko) Chrome/117.0.0.0 Safari/537.36" etag="9aeT4qiEqG8CdunE8vvu" version="22.0.2" type="github">
  <diagram name="Trang-1" id="LjYtV7DgkQe3JrzfCgrb">
    <mxGraphModel dx="1744" dy="2095" grid="1" gridSize="10" guides="1" tooltips="1" connect="1" arrows="1" fold="1" page="1" pageScale="1" pageWidth="827" pageHeight="1169" math="0" shadow="0">
      <root>
        <mxCell id="0" />
        <mxCell id="1" parent="0" />
        <mxCell id="pmbB_0Vecer2xelTUf18-1" value="TEAM" style="rounded=0;whiteSpace=wrap;html=1;fillColor=#f8cecc;strokeColor=#b85450;" vertex="1" parent="1">
          <mxGeometry x="200" y="100" width="200" height="140" as="geometry" />
        </mxCell>
        <mxCell id="pmbB_0Vecer2xelTUf18-2" value="PLAYER&lt;br&gt;" style="rounded=0;whiteSpace=wrap;html=1;fillColor=#f8cecc;strokeColor=#b85450;" vertex="1" parent="1">
          <mxGeometry x="790" y="105" width="220" height="130" as="geometry" />
        </mxCell>
        <mxCell id="pmbB_0Vecer2xelTUf18-3" value="COACH" style="rounded=0;whiteSpace=wrap;html=1;fillColor=#f8cecc;strokeColor=#b85450;" vertex="1" parent="1">
          <mxGeometry x="205" y="400" width="190" height="110" as="geometry" />
        </mxCell>
        <mxCell id="pmbB_0Vecer2xelTUf18-4" value="PARENT" style="rounded=0;whiteSpace=wrap;html=1;fillColor=#f8cecc;strokeColor=#b85450;" vertex="1" parent="1">
          <mxGeometry x="610" y="535" width="260" height="130" as="geometry" />
        </mxCell>
        <mxCell id="pmbB_0Vecer2xelTUf18-5" value="&lt;u&gt;TEAM_ID&lt;/u&gt;" style="ellipse;whiteSpace=wrap;html=1;" vertex="1" parent="1">
          <mxGeometry x="60" y="-50" width="90" height="60" as="geometry" />
        </mxCell>
        <mxCell id="pmbB_0Vecer2xelTUf18-6" value="TEAM_NUMBER" style="ellipse;whiteSpace=wrap;html=1;" vertex="1" parent="1">
          <mxGeometry x="190" y="-60" width="90" height="60" as="geometry" />
        </mxCell>
        <mxCell id="pmbB_0Vecer2xelTUf18-8" value="TEAM_NAME" style="ellipse;whiteSpace=wrap;html=1;" vertex="1" parent="1">
          <mxGeometry x="295" y="-50" width="90" height="60" as="geometry" />
        </mxCell>
        <mxCell id="pmbB_0Vecer2xelTUf18-11" value="TEAM_COLORS" style="ellipse;whiteSpace=wrap;html=1;" vertex="1" parent="1">
          <mxGeometry x="413.5" y="-30" width="90" height="60" as="geometry" />
        </mxCell>
        <mxCell id="pmbB_0Vecer2xelTUf18-12" value="&lt;u&gt;COACH_ID&lt;/u&gt;" style="ellipse;whiteSpace=wrap;html=1;" vertex="1" parent="1">
          <mxGeometry y="460" width="120" height="80" as="geometry" />
        </mxCell>
        <mxCell id="pmbB_0Vecer2xelTUf18-13" value="PLAYER_FIRSTNAME" style="ellipse;whiteSpace=wrap;html=1;" vertex="1" parent="1">
          <mxGeometry x="780" y="-100" width="120" height="80" as="geometry" />
        </mxCell>
        <mxCell id="pmbB_0Vecer2xelTUf18-14" value="PLAYER_LASTNAME" style="ellipse;whiteSpace=wrap;html=1;" vertex="1" parent="1">
          <mxGeometry x="940" y="-80" width="105" height="70" as="geometry" />
        </mxCell>
        <mxCell id="pmbB_0Vecer2xelTUf18-15" value="PLAYER_AGE" style="ellipse;whiteSpace=wrap;html=1;" vertex="1" parent="1">
          <mxGeometry x="1070" y="-20" width="120" height="80" as="geometry" />
        </mxCell>
        <mxCell id="pmbB_0Vecer2xelTUf18-16" value="COACH_FIRSTNAME" style="ellipse;whiteSpace=wrap;html=1;" vertex="1" parent="1">
          <mxGeometry x="60" y="560" width="120" height="80" as="geometry" />
        </mxCell>
        <mxCell id="pmbB_0Vecer2xelTUf18-17" value="COACH_LASTNAME" style="ellipse;whiteSpace=wrap;html=1;" vertex="1" parent="1">
          <mxGeometry x="210" y="600" width="105" height="70" as="geometry" />
        </mxCell>
        <mxCell id="pmbB_0Vecer2xelTUf18-18" value="COACH_PHONE" style="ellipse;whiteSpace=wrap;html=1;" vertex="1" parent="1">
          <mxGeometry x="355" y="570" width="105" height="70" as="geometry" />
        </mxCell>
        <mxCell id="pmbB_0Vecer2xelTUf18-19" value="&lt;u&gt;PARENT_ID&lt;/u&gt;" style="ellipse;whiteSpace=wrap;html=1;" vertex="1" parent="1">
          <mxGeometry x="490" y="680" width="120" height="80" as="geometry" />
        </mxCell>
        <mxCell id="pmbB_0Vecer2xelTUf18-20" value="COACH_LASTNAME" style="ellipse;whiteSpace=wrap;html=1;" vertex="1" parent="1">
          <mxGeometry x="675" y="790" width="105" height="70" as="geometry" />
        </mxCell>
        <mxCell id="pmbB_0Vecer2xelTUf18-21" value="PARENT_FIRSTNAME" style="ellipse;whiteSpace=wrap;html=1;" vertex="1" parent="1">
          <mxGeometry x="790" y="730" width="120" height="80" as="geometry" />
        </mxCell>
        <mxCell id="pmbB_0Vecer2xelTUf18-22" value="&lt;u&gt;PLAYER_ID&lt;/u&gt;" style="ellipse;whiteSpace=wrap;html=1;" vertex="1" parent="1">
          <mxGeometry x="630" y="-80" width="120" height="80" as="geometry" />
        </mxCell>
        <mxCell id="pmbB_0Vecer2xelTUf18-23" value="PARENT_PHONE" style="ellipse;whiteSpace=wrap;html=1;" vertex="1" parent="1">
          <mxGeometry x="945" y="710" width="105" height="70" as="geometry" />
        </mxCell>
        <mxCell id="pmbB_0Vecer2xelTUf18-24" value="HOME_ADDRESS" style="rounded=0;whiteSpace=wrap;html=1;fillColor=#f8cecc;strokeColor=#b85450;" vertex="1" parent="1">
          <mxGeometry x="1030" y="415" width="240" height="120" as="geometry" />
        </mxCell>
        <mxCell id="pmbB_0Vecer2xelTUf18-25" value="STREET" style="ellipse;whiteSpace=wrap;html=1;" vertex="1" parent="1">
          <mxGeometry x="1360" y="360" width="120" height="80" as="geometry" />
        </mxCell>
        <mxCell id="pmbB_0Vecer2xelTUf18-27" value="CITY" style="ellipse;whiteSpace=wrap;html=1;" vertex="1" parent="1">
          <mxGeometry x="990" y="250" width="120" height="80" as="geometry" />
        </mxCell>
        <mxCell id="pmbB_0Vecer2xelTUf18-28" value="STATE" style="ellipse;whiteSpace=wrap;html=1;" vertex="1" parent="1">
          <mxGeometry x="1121" y="250" width="120" height="80" as="geometry" />
        </mxCell>
        <mxCell id="pmbB_0Vecer2xelTUf18-29" value="ZIP_CODE" style="ellipse;whiteSpace=wrap;html=1;" vertex="1" parent="1">
          <mxGeometry x="1270" y="270" width="120" height="80" as="geometry" />
        </mxCell>
        <mxCell id="pmbB_0Vecer2xelTUf18-30" value="" style="endArrow=none;html=1;rounded=0;entryX=1;entryY=1;entryDx=0;entryDy=0;exitX=0.5;exitY=0;exitDx=0;exitDy=0;" edge="1" parent="1" source="pmbB_0Vecer2xelTUf18-2" target="pmbB_0Vecer2xelTUf18-22">
          <mxGeometry width="50" height="50" relative="1" as="geometry">
            <mxPoint x="690" y="480" as="sourcePoint" />
            <mxPoint x="740" y="430" as="targetPoint" />
          </mxGeometry>
        </mxCell>
        <mxCell id="pmbB_0Vecer2xelTUf18-31" value="" style="endArrow=none;html=1;rounded=0;entryX=0.5;entryY=1;entryDx=0;entryDy=0;exitX=0.5;exitY=0;exitDx=0;exitDy=0;" edge="1" parent="1" source="pmbB_0Vecer2xelTUf18-2" target="pmbB_0Vecer2xelTUf18-13">
          <mxGeometry width="50" height="50" relative="1" as="geometry">
            <mxPoint x="690" y="320" as="sourcePoint" />
            <mxPoint x="740" y="270" as="targetPoint" />
          </mxGeometry>
        </mxCell>
        <mxCell id="pmbB_0Vecer2xelTUf18-32" value="" style="endArrow=none;html=1;rounded=0;entryX=0.5;entryY=1;entryDx=0;entryDy=0;exitX=0.5;exitY=0;exitDx=0;exitDy=0;" edge="1" parent="1" source="pmbB_0Vecer2xelTUf18-2" target="pmbB_0Vecer2xelTUf18-14">
          <mxGeometry width="50" height="50" relative="1" as="geometry">
            <mxPoint x="690" y="320" as="sourcePoint" />
            <mxPoint x="740" y="270" as="targetPoint" />
          </mxGeometry>
        </mxCell>
        <mxCell id="pmbB_0Vecer2xelTUf18-33" value="" style="endArrow=none;html=1;rounded=0;entryX=0;entryY=0.5;entryDx=0;entryDy=0;exitX=0.5;exitY=0;exitDx=0;exitDy=0;" edge="1" parent="1" source="pmbB_0Vecer2xelTUf18-2" target="pmbB_0Vecer2xelTUf18-15">
          <mxGeometry width="50" height="50" relative="1" as="geometry">
            <mxPoint x="690" y="320" as="sourcePoint" />
            <mxPoint x="740" y="270" as="targetPoint" />
          </mxGeometry>
        </mxCell>
        <mxCell id="pmbB_0Vecer2xelTUf18-34" value="" style="endArrow=none;html=1;rounded=0;exitX=1;exitY=1;exitDx=0;exitDy=0;entryX=0.5;entryY=0;entryDx=0;entryDy=0;" edge="1" parent="1" source="pmbB_0Vecer2xelTUf18-5" target="pmbB_0Vecer2xelTUf18-1">
          <mxGeometry width="50" height="50" relative="1" as="geometry">
            <mxPoint x="-39.996796564403624" y="344.14213562373084" as="sourcePoint" />
            <mxPoint x="232.7900000000001" y="300" as="targetPoint" />
          </mxGeometry>
        </mxCell>
        <mxCell id="pmbB_0Vecer2xelTUf18-35" value="" style="endArrow=none;html=1;rounded=0;entryX=0.5;entryY=1;entryDx=0;entryDy=0;exitX=0.5;exitY=0;exitDx=0;exitDy=0;" edge="1" parent="1" source="pmbB_0Vecer2xelTUf18-1" target="pmbB_0Vecer2xelTUf18-6">
          <mxGeometry width="50" height="50" relative="1" as="geometry">
            <mxPoint x="240" y="370" as="sourcePoint" />
            <mxPoint x="290" y="320" as="targetPoint" />
          </mxGeometry>
        </mxCell>
        <mxCell id="pmbB_0Vecer2xelTUf18-36" value="" style="endArrow=none;html=1;rounded=0;entryX=0.5;entryY=1;entryDx=0;entryDy=0;exitX=0.5;exitY=0;exitDx=0;exitDy=0;" edge="1" parent="1" source="pmbB_0Vecer2xelTUf18-1" target="pmbB_0Vecer2xelTUf18-8">
          <mxGeometry width="50" height="50" relative="1" as="geometry">
            <mxPoint x="240" y="370" as="sourcePoint" />
            <mxPoint x="290" y="320" as="targetPoint" />
          </mxGeometry>
        </mxCell>
        <mxCell id="pmbB_0Vecer2xelTUf18-37" value="" style="endArrow=none;html=1;rounded=0;entryX=-0.023;entryY=0.429;entryDx=0;entryDy=0;entryPerimeter=0;exitX=0.5;exitY=0;exitDx=0;exitDy=0;" edge="1" parent="1" source="pmbB_0Vecer2xelTUf18-1" target="pmbB_0Vecer2xelTUf18-11">
          <mxGeometry width="50" height="50" relative="1" as="geometry">
            <mxPoint x="220" y="370" as="sourcePoint" />
            <mxPoint x="270" y="320" as="targetPoint" />
          </mxGeometry>
        </mxCell>
        <mxCell id="pmbB_0Vecer2xelTUf18-38" value="" style="endArrow=none;html=1;rounded=0;entryX=0.5;entryY=1;entryDx=0;entryDy=0;exitX=0.5;exitY=0;exitDx=0;exitDy=0;" edge="1" parent="1" source="pmbB_0Vecer2xelTUf18-18" target="pmbB_0Vecer2xelTUf18-3">
          <mxGeometry width="50" height="50" relative="1" as="geometry">
            <mxPoint x="270" y="480" as="sourcePoint" />
            <mxPoint x="320" y="430" as="targetPoint" />
          </mxGeometry>
        </mxCell>
        <mxCell id="pmbB_0Vecer2xelTUf18-39" value="" style="endArrow=none;html=1;rounded=0;exitX=0.5;exitY=1;exitDx=0;exitDy=0;entryX=0.5;entryY=0;entryDx=0;entryDy=0;" edge="1" parent="1" source="pmbB_0Vecer2xelTUf18-3" target="pmbB_0Vecer2xelTUf18-17">
          <mxGeometry width="50" height="50" relative="1" as="geometry">
            <mxPoint x="370" y="460" as="sourcePoint" />
            <mxPoint x="420" y="410" as="targetPoint" />
          </mxGeometry>
        </mxCell>
        <mxCell id="pmbB_0Vecer2xelTUf18-40" value="" style="endArrow=none;html=1;rounded=0;exitX=0.614;exitY=-0.005;exitDx=0;exitDy=0;exitPerimeter=0;entryX=0.5;entryY=1;entryDx=0;entryDy=0;" edge="1" parent="1" source="pmbB_0Vecer2xelTUf18-16" target="pmbB_0Vecer2xelTUf18-3">
          <mxGeometry width="50" height="50" relative="1" as="geometry">
            <mxPoint x="370" y="460" as="sourcePoint" />
            <mxPoint x="420" y="410" as="targetPoint" />
          </mxGeometry>
        </mxCell>
        <mxCell id="pmbB_0Vecer2xelTUf18-41" value="" style="endArrow=none;html=1;rounded=0;exitX=1;exitY=1;exitDx=0;exitDy=0;entryX=0.5;entryY=1;entryDx=0;entryDy=0;" edge="1" parent="1" source="pmbB_0Vecer2xelTUf18-12" target="pmbB_0Vecer2xelTUf18-3">
          <mxGeometry width="50" height="50" relative="1" as="geometry">
            <mxPoint x="370" y="460" as="sourcePoint" />
            <mxPoint x="420" y="410" as="targetPoint" />
          </mxGeometry>
        </mxCell>
        <mxCell id="pmbB_0Vecer2xelTUf18-42" value="" style="endArrow=none;html=1;rounded=0;entryX=1;entryY=0;entryDx=0;entryDy=0;exitX=0.5;exitY=1;exitDx=0;exitDy=0;" edge="1" parent="1" source="pmbB_0Vecer2xelTUf18-4" target="pmbB_0Vecer2xelTUf18-19">
          <mxGeometry width="50" height="50" relative="1" as="geometry">
            <mxPoint x="520" y="870" as="sourcePoint" />
            <mxPoint x="570" y="820" as="targetPoint" />
          </mxGeometry>
        </mxCell>
        <mxCell id="pmbB_0Vecer2xelTUf18-43" value="" style="endArrow=none;html=1;rounded=0;entryX=0.5;entryY=1;entryDx=0;entryDy=0;exitX=1;exitY=0;exitDx=0;exitDy=0;" edge="1" parent="1" source="pmbB_0Vecer2xelTUf18-20" target="pmbB_0Vecer2xelTUf18-4">
          <mxGeometry width="50" height="50" relative="1" as="geometry">
            <mxPoint x="520" y="870" as="sourcePoint" />
            <mxPoint x="570" y="820" as="targetPoint" />
          </mxGeometry>
        </mxCell>
        <mxCell id="pmbB_0Vecer2xelTUf18-44" value="" style="endArrow=none;html=1;rounded=0;entryX=0.5;entryY=1;entryDx=0;entryDy=0;exitX=0.5;exitY=0;exitDx=0;exitDy=0;" edge="1" parent="1" source="pmbB_0Vecer2xelTUf18-21" target="pmbB_0Vecer2xelTUf18-4">
          <mxGeometry width="50" height="50" relative="1" as="geometry">
            <mxPoint x="520" y="870" as="sourcePoint" />
            <mxPoint x="570" y="820" as="targetPoint" />
          </mxGeometry>
        </mxCell>
        <mxCell id="pmbB_0Vecer2xelTUf18-45" value="" style="endArrow=none;html=1;rounded=0;entryX=0.5;entryY=1;entryDx=0;entryDy=0;exitX=0.41;exitY=-0.001;exitDx=0;exitDy=0;exitPerimeter=0;" edge="1" parent="1" source="pmbB_0Vecer2xelTUf18-23" target="pmbB_0Vecer2xelTUf18-4">
          <mxGeometry width="50" height="50" relative="1" as="geometry">
            <mxPoint x="520" y="870" as="sourcePoint" />
            <mxPoint x="570" y="820" as="targetPoint" />
          </mxGeometry>
        </mxCell>
        <mxCell id="pmbB_0Vecer2xelTUf18-46" value="HAS" style="rhombus;whiteSpace=wrap;html=1;" vertex="1" parent="1">
          <mxGeometry x="500" y="130" width="210" height="80" as="geometry" />
        </mxCell>
        <mxCell id="pmbB_0Vecer2xelTUf18-47" value="" style="endArrow=none;html=1;rounded=0;entryX=1;entryY=0.5;entryDx=0;entryDy=0;" edge="1" parent="1" source="pmbB_0Vecer2xelTUf18-46" target="pmbB_0Vecer2xelTUf18-1">
          <mxGeometry width="50" height="50" relative="1" as="geometry">
            <mxPoint x="660" y="400" as="sourcePoint" />
            <mxPoint x="710" y="350" as="targetPoint" />
          </mxGeometry>
        </mxCell>
        <mxCell id="pmbB_0Vecer2xelTUf18-48" value="" style="endArrow=none;html=1;rounded=0;entryX=0;entryY=0.5;entryDx=0;entryDy=0;exitX=1;exitY=0.5;exitDx=0;exitDy=0;" edge="1" parent="1" source="pmbB_0Vecer2xelTUf18-46" target="pmbB_0Vecer2xelTUf18-2">
          <mxGeometry width="50" height="50" relative="1" as="geometry">
            <mxPoint x="710" y="210" as="sourcePoint" />
            <mxPoint x="760" y="160" as="targetPoint" />
          </mxGeometry>
        </mxCell>
        <mxCell id="pmbB_0Vecer2xelTUf18-50" value="(0 , N)" style="text;html=1;strokeColor=none;fillColor=none;align=center;verticalAlign=middle;whiteSpace=wrap;rounded=0;" vertex="1" parent="1">
          <mxGeometry x="420" y="130" width="60" height="30" as="geometry" />
        </mxCell>
        <mxCell id="pmbB_0Vecer2xelTUf18-54" value="(1 , 1)" style="text;html=1;strokeColor=none;fillColor=none;align=center;verticalAlign=middle;whiteSpace=wrap;rounded=0;" vertex="1" parent="1">
          <mxGeometry x="710" y="130" width="60" height="30" as="geometry" />
        </mxCell>
        <mxCell id="pmbB_0Vecer2xelTUf18-55" value="JOIN" style="rhombus;whiteSpace=wrap;html=1;" vertex="1" parent="1">
          <mxGeometry x="210" y="280" width="180" height="80" as="geometry" />
        </mxCell>
        <mxCell id="pmbB_0Vecer2xelTUf18-57" value="" style="endArrow=none;html=1;rounded=0;exitX=0.5;exitY=0;exitDx=0;exitDy=0;entryX=0.5;entryY=1;entryDx=0;entryDy=0;" edge="1" parent="1" source="pmbB_0Vecer2xelTUf18-3" target="pmbB_0Vecer2xelTUf18-55">
          <mxGeometry width="50" height="50" relative="1" as="geometry">
            <mxPoint x="480" y="300" as="sourcePoint" />
            <mxPoint x="530" y="250" as="targetPoint" />
          </mxGeometry>
        </mxCell>
        <mxCell id="pmbB_0Vecer2xelTUf18-58" value="(1 , 1)" style="text;html=1;strokeColor=none;fillColor=none;align=center;verticalAlign=middle;whiteSpace=wrap;rounded=0;" vertex="1" parent="1">
          <mxGeometry x="315" y="360" width="60" height="30" as="geometry" />
        </mxCell>
        <mxCell id="pmbB_0Vecer2xelTUf18-59" value="(1 , N)" style="text;html=1;strokeColor=none;fillColor=none;align=center;verticalAlign=middle;whiteSpace=wrap;rounded=0;" vertex="1" parent="1">
          <mxGeometry x="315" y="250" width="60" height="30" as="geometry" />
        </mxCell>
        <mxCell id="pmbB_0Vecer2xelTUf18-65" value="" style="endArrow=none;html=1;rounded=0;entryX=0.549;entryY=0.993;entryDx=0;entryDy=0;entryPerimeter=0;exitX=0.55;exitY=0.052;exitDx=0;exitDy=0;exitPerimeter=0;" edge="1" parent="1" source="pmbB_0Vecer2xelTUf18-55" target="pmbB_0Vecer2xelTUf18-1">
          <mxGeometry width="50" height="50" relative="1" as="geometry">
            <mxPoint x="460" y="340" as="sourcePoint" />
            <mxPoint x="510" y="290" as="targetPoint" />
          </mxGeometry>
        </mxCell>
        <mxCell id="pmbB_0Vecer2xelTUf18-66" value="" style="endArrow=none;html=1;rounded=0;entryX=0.466;entryY=0.029;entryDx=0;entryDy=0;entryPerimeter=0;exitX=0.468;exitY=0.996;exitDx=0;exitDy=0;exitPerimeter=0;" edge="1" parent="1" source="pmbB_0Vecer2xelTUf18-1" target="pmbB_0Vecer2xelTUf18-55">
          <mxGeometry width="50" height="50" relative="1" as="geometry">
            <mxPoint x="370" y="340" as="sourcePoint" />
            <mxPoint x="420" y="290" as="targetPoint" />
          </mxGeometry>
        </mxCell>
        <mxCell id="pmbB_0Vecer2xelTUf18-67" value="" style="endArrow=none;html=1;rounded=0;entryX=0.5;entryY=1;entryDx=0;entryDy=0;exitX=0.5;exitY=0;exitDx=0;exitDy=0;" edge="1" parent="1" source="pmbB_0Vecer2xelTUf18-24" target="pmbB_0Vecer2xelTUf18-27">
          <mxGeometry width="50" height="50" relative="1" as="geometry">
            <mxPoint x="950" y="410" as="sourcePoint" />
            <mxPoint x="1000" y="360" as="targetPoint" />
          </mxGeometry>
        </mxCell>
        <mxCell id="pmbB_0Vecer2xelTUf18-68" value="" style="endArrow=none;html=1;rounded=0;entryX=0.5;entryY=1;entryDx=0;entryDy=0;exitX=0.5;exitY=0;exitDx=0;exitDy=0;" edge="1" parent="1" source="pmbB_0Vecer2xelTUf18-24" target="pmbB_0Vecer2xelTUf18-28">
          <mxGeometry width="50" height="50" relative="1" as="geometry">
            <mxPoint x="1290" y="380" as="sourcePoint" />
            <mxPoint x="1170" y="330" as="targetPoint" />
          </mxGeometry>
        </mxCell>
        <mxCell id="pmbB_0Vecer2xelTUf18-69" value="" style="endArrow=none;html=1;rounded=0;entryX=0;entryY=1;entryDx=0;entryDy=0;exitX=0.5;exitY=0;exitDx=0;exitDy=0;" edge="1" parent="1" source="pmbB_0Vecer2xelTUf18-24" target="pmbB_0Vecer2xelTUf18-29">
          <mxGeometry width="50" height="50" relative="1" as="geometry">
            <mxPoint x="1186" y="390" as="sourcePoint" />
            <mxPoint x="1191" y="346" as="targetPoint" />
          </mxGeometry>
        </mxCell>
        <mxCell id="pmbB_0Vecer2xelTUf18-70" value="" style="endArrow=none;html=1;rounded=0;entryX=0;entryY=0.5;entryDx=0;entryDy=0;exitX=0.5;exitY=0;exitDx=0;exitDy=0;" edge="1" parent="1" source="pmbB_0Vecer2xelTUf18-24" target="pmbB_0Vecer2xelTUf18-25">
          <mxGeometry width="50" height="50" relative="1" as="geometry">
            <mxPoint x="1180" y="390" as="sourcePoint" />
            <mxPoint x="1191" y="340" as="targetPoint" />
          </mxGeometry>
        </mxCell>
        <mxCell id="pmbB_0Vecer2xelTUf18-73" value="HAS" style="rhombus;whiteSpace=wrap;html=1;" vertex="1" parent="1">
          <mxGeometry x="740" y="350" width="170" height="80" as="geometry" />
        </mxCell>
        <mxCell id="pmbB_0Vecer2xelTUf18-74" value="" style="endArrow=none;html=1;rounded=0;entryX=0.5;entryY=1;entryDx=0;entryDy=0;exitX=0.5;exitY=0;exitDx=0;exitDy=0;edgeStyle=orthogonalEdgeStyle;" edge="1" parent="1" source="pmbB_0Vecer2xelTUf18-73" target="pmbB_0Vecer2xelTUf18-2">
          <mxGeometry width="50" height="50" relative="1" as="geometry">
            <mxPoint x="830" y="330" as="sourcePoint" />
            <mxPoint x="880" y="280" as="targetPoint" />
          </mxGeometry>
        </mxCell>
        <mxCell id="pmbB_0Vecer2xelTUf18-76" value="" style="endArrow=none;html=1;rounded=0;entryX=0.5;entryY=0;entryDx=0;entryDy=0;exitX=0.434;exitY=0.938;exitDx=0;exitDy=0;exitPerimeter=0;" edge="1" parent="1" source="pmbB_0Vecer2xelTUf18-73" target="pmbB_0Vecer2xelTUf18-4">
          <mxGeometry width="50" height="50" relative="1" as="geometry">
            <mxPoint x="825" y="430" as="sourcePoint" />
            <mxPoint x="740" y="535" as="targetPoint" />
            <Array as="points">
              <mxPoint x="814" y="500" />
              <mxPoint x="740" y="500" />
            </Array>
          </mxGeometry>
        </mxCell>
        <mxCell id="pmbB_0Vecer2xelTUf18-77" value="(1 , 1)" style="text;html=1;strokeColor=none;fillColor=none;align=center;verticalAlign=middle;whiteSpace=wrap;rounded=0;" vertex="1" parent="1">
          <mxGeometry x="760" y="290" width="60" height="30" as="geometry" />
        </mxCell>
        <mxCell id="pmbB_0Vecer2xelTUf18-78" value="(1 , N)" style="text;html=1;strokeColor=none;fillColor=none;align=center;verticalAlign=middle;whiteSpace=wrap;rounded=0;" vertex="1" parent="1">
          <mxGeometry x="750" y="460" width="60" height="30" as="geometry" />
        </mxCell>
        <mxCell id="pmbB_0Vecer2xelTUf18-79" value="" style="endArrow=none;html=1;rounded=0;exitX=0.562;exitY=0.01;exitDx=0;exitDy=0;exitPerimeter=0;entryX=0.525;entryY=0.993;entryDx=0;entryDy=0;entryPerimeter=0;" edge="1" parent="1" target="pmbB_0Vecer2xelTUf18-73">
          <mxGeometry width="50" height="50" relative="1" as="geometry">
            <mxPoint x="760.1200000000001" y="535" as="sourcePoint" />
            <mxPoint x="844.1299999999999" y="422.14000000000004" as="targetPoint" />
            <Array as="points">
              <mxPoint x="760" y="508.7" />
              <mxPoint x="830" y="509" />
            </Array>
          </mxGeometry>
        </mxCell>
        <mxCell id="pmbB_0Vecer2xelTUf18-81" value="HAS" style="rhombus;whiteSpace=wrap;html=1;" vertex="1" parent="1">
          <mxGeometry x="970" y="560" width="160" height="80" as="geometry" />
        </mxCell>
        <mxCell id="pmbB_0Vecer2xelTUf18-82" value="" style="endArrow=none;html=1;rounded=0;entryX=0;entryY=0.5;entryDx=0;entryDy=0;exitX=1;exitY=0.5;exitDx=0;exitDy=0;" edge="1" parent="1" source="pmbB_0Vecer2xelTUf18-4" target="pmbB_0Vecer2xelTUf18-81">
          <mxGeometry width="50" height="50" relative="1" as="geometry">
            <mxPoint x="970" y="480" as="sourcePoint" />
            <mxPoint x="1020" y="430" as="targetPoint" />
          </mxGeometry>
        </mxCell>
        <mxCell id="pmbB_0Vecer2xelTUf18-83" value="" style="endArrow=none;html=1;rounded=0;edgeStyle=orthogonalEdgeStyle;entryX=1;entryY=0.5;entryDx=0;entryDy=0;exitX=0.5;exitY=1;exitDx=0;exitDy=0;" edge="1" parent="1" source="pmbB_0Vecer2xelTUf18-24" target="pmbB_0Vecer2xelTUf18-81">
          <mxGeometry width="50" height="50" relative="1" as="geometry">
            <mxPoint x="970" y="480" as="sourcePoint" />
            <mxPoint x="1020" y="430" as="targetPoint" />
          </mxGeometry>
        </mxCell>
        <mxCell id="pmbB_0Vecer2xelTUf18-85" value="(1 , N)" style="text;html=1;strokeColor=none;fillColor=none;align=center;verticalAlign=middle;whiteSpace=wrap;rounded=0;" vertex="1" parent="1">
          <mxGeometry x="900" y="560" width="60" height="30" as="geometry" />
        </mxCell>
        <mxCell id="pmbB_0Vecer2xelTUf18-86" value="(1 , 1)" style="text;html=1;strokeColor=none;fillColor=none;align=center;verticalAlign=middle;whiteSpace=wrap;rounded=0;" vertex="1" parent="1">
          <mxGeometry x="1170" y="550" width="60" height="30" as="geometry" />
        </mxCell>
        <mxCell id="pmbB_0Vecer2xelTUf18-87" value="&lt;u&gt;PARENT_ID&lt;/u&gt;" style="ellipse;whiteSpace=wrap;html=1;" vertex="1" parent="1">
          <mxGeometry x="920" y="330" width="120" height="80" as="geometry" />
        </mxCell>
        <mxCell id="pmbB_0Vecer2xelTUf18-88" value="" style="endArrow=none;html=1;rounded=0;entryX=1;entryY=0.5;entryDx=0;entryDy=0;exitX=0.5;exitY=0;exitDx=0;exitDy=0;" edge="1" parent="1" source="pmbB_0Vecer2xelTUf18-24" target="pmbB_0Vecer2xelTUf18-87">
          <mxGeometry width="50" height="50" relative="1" as="geometry">
            <mxPoint x="970" y="480" as="sourcePoint" />
            <mxPoint x="1020" y="430" as="targetPoint" />
          </mxGeometry>
        </mxCell>
        <mxCell id="pmbB_0Vecer2xelTUf18-89" value="&lt;u&gt;PLAYER_ID&lt;/u&gt;" style="ellipse;whiteSpace=wrap;html=1;" vertex="1" parent="1">
          <mxGeometry x="540" y="780" width="120" height="80" as="geometry" />
        </mxCell>
        <mxCell id="pmbB_0Vecer2xelTUf18-90" value="" style="endArrow=none;html=1;rounded=0;entryX=1;entryY=0;entryDx=0;entryDy=0;exitX=0.5;exitY=1;exitDx=0;exitDy=0;" edge="1" parent="1" source="pmbB_0Vecer2xelTUf18-4" target="pmbB_0Vecer2xelTUf18-89">
          <mxGeometry width="50" height="50" relative="1" as="geometry">
            <mxPoint x="490" y="730" as="sourcePoint" />
            <mxPoint x="540" y="680" as="targetPoint" />
          </mxGeometry>
        </mxCell>
        <mxCell id="pmbB_0Vecer2xelTUf18-91" value="&lt;u&gt;COACH_ID&lt;/u&gt;" style="ellipse;whiteSpace=wrap;html=1;" vertex="1" parent="1">
          <mxGeometry y="20" width="120" height="80" as="geometry" />
        </mxCell>
        <mxCell id="pmbB_0Vecer2xelTUf18-92" value="" style="endArrow=none;html=1;rounded=0;exitX=1;exitY=0.5;exitDx=0;exitDy=0;" edge="1" parent="1" source="pmbB_0Vecer2xelTUf18-91">
          <mxGeometry width="50" height="50" relative="1" as="geometry">
            <mxPoint x="430" y="90" as="sourcePoint" />
            <mxPoint x="300" y="100" as="targetPoint" />
          </mxGeometry>
        </mxCell>
        <mxCell id="pmbB_0Vecer2xelTUf18-93" value="&lt;u&gt;TEAM_ID&lt;/u&gt;" style="ellipse;whiteSpace=wrap;html=1;" vertex="1" parent="1">
          <mxGeometry x="640" y="20" width="90" height="60" as="geometry" />
        </mxCell>
        <mxCell id="pmbB_0Vecer2xelTUf18-94" value="" style="endArrow=none;html=1;rounded=0;entryX=1;entryY=1;entryDx=0;entryDy=0;exitX=0.5;exitY=0;exitDx=0;exitDy=0;" edge="1" parent="1" source="pmbB_0Vecer2xelTUf18-2" target="pmbB_0Vecer2xelTUf18-93">
          <mxGeometry width="50" height="50" relative="1" as="geometry">
            <mxPoint x="620" y="-10" as="sourcePoint" />
            <mxPoint x="670" y="-60" as="targetPoint" />
          </mxGeometry>
        </mxCell>
      </root>
    </mxGraphModel>
  </diagram>
</mxfile>
